<svg xmlns="http://www.w3.org/2000/svg" xmlns:xlink="http://www.w3.org/1999/xlink" width="2294.137" height="1678.663" viewBox="0 0 2294.137 1678.663">
  <defs>
    <filter id="Rectangle_44" x="513.713" y="364.91" width="1474.296" height="995.194" filterUnits="userSpaceOnUse">
      <feOffset dy="3" input="SourceAlpha"/>
      <feGaussianBlur stdDeviation="3" result="blur"/>
      <feFlood flood-opacity="0.161"/>
      <feComposite operator="in" in2="blur"/>
      <feComposite in="SourceGraphic"/>
    </filter>
    <filter id="Rectangle_45" x="1004.985" y="0" width="1208.541" height="821.378" filterUnits="userSpaceOnUse">
      <feOffset dy="3" input="SourceAlpha"/>
      <feGaussianBlur stdDeviation="3" result="blur-2"/>
      <feFlood flood-opacity="0.161"/>
      <feComposite operator="in" in2="blur-2"/>
      <feComposite in="SourceGraphic"/>
    </filter>
    <filter id="Rectangle_46" x="673.854" y="157.492" width="1466.245" height="967.419" filterUnits="userSpaceOnUse">
      <feOffset dy="3" input="SourceAlpha"/>
      <feGaussianBlur stdDeviation="3" result="blur-3"/>
      <feFlood flood-opacity="0.161"/>
      <feComposite operator="in" in2="blur-3"/>
      <feComposite in="SourceGraphic"/>
    </filter>
    <filter id="Rectangle_47" x="417.017" y="849.357" width="1143.984" height="774.319" filterUnits="userSpaceOnUse">
      <feOffset dy="3" input="SourceAlpha"/>
      <feGaussianBlur stdDeviation="3" result="blur-4"/>
      <feFlood flood-opacity="0.161"/>
      <feComposite operator="in" in2="blur-4"/>
      <feComposite in="SourceGraphic"/>
    </filter>
    <filter id="Rectangle_48" x="0" y="632.178" width="1445.151" height="948.552" filterUnits="userSpaceOnUse">
      <feOffset dy="3" input="SourceAlpha"/>
      <feGaussianBlur stdDeviation="3" result="blur-5"/>
      <feFlood flood-opacity="0.161"/>
      <feComposite operator="in" in2="blur-5"/>
      <feComposite in="SourceGraphic"/>
    </filter>
    <filter id="Rectangle_49" x="228.279" y="904.344" width="1143.984" height="774.319" filterUnits="userSpaceOnUse">
      <feOffset dy="3" input="SourceAlpha"/>
      <feGaussianBlur stdDeviation="3" result="blur-6"/>
      <feFlood flood-opacity="0.161"/>
      <feComposite operator="in" in2="blur-6"/>
      <feComposite in="SourceGraphic"/>
    </filter>
    <filter id="Rectangle_50" x="460.279" y="803.344" width="1143.984" height="774.319" filterUnits="userSpaceOnUse">
      <feOffset dy="3" input="SourceAlpha"/>
      <feGaussianBlur stdDeviation="3" result="blur-7"/>
      <feFlood flood-opacity="0.161"/>
      <feComposite operator="in" in2="blur-7"/>
      <feComposite in="SourceGraphic"/>
    </filter>
    <filter id="Rectangle_51" x="218.089" y="836.955" width="1143.984" height="774.319" filterUnits="userSpaceOnUse">
      <feOffset dy="3" input="SourceAlpha"/>
      <feGaussianBlur stdDeviation="3" result="blur-8"/>
      <feFlood flood-opacity="0.161"/>
      <feComposite operator="in" in2="blur-8"/>
      <feComposite in="SourceGraphic"/>
    </filter>
    <filter id="Rectangle_52" x="494.906" y="714.224" width="1373.752" height="924.555" filterUnits="userSpaceOnUse">
      <feOffset dx="4" dy="3" input="SourceAlpha"/>
      <feGaussianBlur stdDeviation="5.5" result="blur-9"/>
      <feFlood flood-opacity="0.161"/>
      <feComposite operator="in" in2="blur-9"/>
      <feComposite in="SourceGraphic"/>
    </filter>
    <filter id="Rectangle_53" x="1265.096" y="88.63" width="866.199" height="592.926" filterUnits="userSpaceOnUse">
      <feOffset dx="4" dy="3" input="SourceAlpha"/>
      <feGaussianBlur stdDeviation="5.5" result="blur-10"/>
      <feFlood flood-opacity="0.161"/>
      <feComposite operator="in" in2="blur-10"/>
      <feComposite in="SourceGraphic"/>
    </filter>
    <filter id="Rectangle_54" x="1149.279" y="230.344" width="1092.254" height="741.994" filterUnits="userSpaceOnUse">
      <feOffset dy="3" input="SourceAlpha"/>
      <feGaussianBlur stdDeviation="3" result="blur-11"/>
      <feFlood flood-opacity="0.161"/>
      <feComposite operator="in" in2="blur-11"/>
      <feComposite in="SourceGraphic"/>
    </filter>
    <filter id="Rectangle_55" x="748.096" y="395.796" width="1454.104" height="977.866" filterUnits="userSpaceOnUse">
      <feOffset dx="4" dy="3" input="SourceAlpha"/>
      <feGaussianBlur stdDeviation="5.5" result="blur-12"/>
      <feFlood flood-opacity="0.161"/>
      <feComposite operator="in" in2="blur-12"/>
      <feComposite in="SourceGraphic"/>
    </filter>
    <filter id="Rectangle_56" x="874.072" y="666.28" width="1143.984" height="774.319" filterUnits="userSpaceOnUse">
      <feOffset dy="3" input="SourceAlpha"/>
      <feGaussianBlur stdDeviation="3" result="blur-13"/>
      <feFlood flood-opacity="0.161"/>
      <feComposite operator="in" in2="blur-13"/>
      <feComposite in="SourceGraphic"/>
    </filter>
    <filter id="Rectangle_57" x="864.072" y="749.28" width="1143.984" height="774.319" filterUnits="userSpaceOnUse">
      <feOffset dy="3" input="SourceAlpha"/>
      <feGaussianBlur stdDeviation="3" result="blur-14"/>
      <feFlood flood-opacity="0.161"/>
      <feComposite operator="in" in2="blur-14"/>
      <feComposite in="SourceGraphic"/>
    </filter>
    <filter id="Rectangle_58" x="996.089" y="237.955" width="1143.984" height="774.319" filterUnits="userSpaceOnUse">
      <feOffset dy="3" input="SourceAlpha"/>
      <feGaussianBlur stdDeviation="3" result="blur-15"/>
      <feFlood flood-opacity="0.161"/>
      <feComposite operator="in" in2="blur-15"/>
      <feComposite in="SourceGraphic"/>
    </filter>
    <filter id="Rectangle_59" x="1296.017" y="231.357" width="998.12" height="683.173" filterUnits="userSpaceOnUse">
      <feOffset dy="3" input="SourceAlpha"/>
      <feGaussianBlur stdDeviation="3" result="blur-16"/>
      <feFlood flood-opacity="0.161"/>
      <feComposite operator="in" in2="blur-16"/>
      <feComposite in="SourceGraphic"/>
    </filter>
    <filter id="Rectangle_60" x="795.244" y="319.924" width="1132.326" height="755.662" filterUnits="userSpaceOnUse">
      <feOffset dy="3" input="SourceAlpha"/>
      <feGaussianBlur stdDeviation="3" result="blur-17"/>
      <feFlood flood-opacity="0.161"/>
      <feComposite operator="in" in2="blur-17"/>
      <feComposite in="SourceGraphic"/>
    </filter>
    <filter id="Rectangle_61" x="650.355" y="716.537" width="1200.592" height="808.657" filterUnits="userSpaceOnUse">
      <feOffset dy="3" input="SourceAlpha"/>
      <feGaussianBlur stdDeviation="3" result="blur-18"/>
      <feFlood flood-opacity="0.161"/>
      <feComposite operator="in" in2="blur-18"/>
      <feComposite in="SourceGraphic"/>
    </filter>
  </defs>
  <g transform="matrix(1, 0, 0, 1, 0, 0)" filter="url(#Rectangle_44)">
    <rect id="Rectangle_44-2" data-name="Rectangle 44" width="1636" height="130" rx="65" transform="matrix(0.85, 0.53, -0.53, 0.85, 591.6, 370.91)" fill="#262626"/>
  </g>
  <g transform="matrix(1, 0, 0, 1, 0, 0)" filter="url(#Rectangle_45)">
    <rect id="Rectangle_45-2" data-name="Rectangle 45" width="1332" height="115" rx="57.5" transform="matrix(0.85, 0.53, -0.53, 0.85, 1074.93, 6)" fill="#1a1a1a"/>
  </g>
  <g transform="matrix(1, 0, 0, 1, 0, 0)" filter="url(#Rectangle_46)">
    <rect id="Rectangle_46-2" data-name="Rectangle 46" width="1654" height="86" rx="43" transform="matrix(0.85, 0.53, -0.53, 0.85, 728.43, 163.49)" fill="#591919"/>
  </g>
  <g transform="matrix(1, 0, 0, 1, 0, 0)" filter="url(#Rectangle_47)">
    <rect id="Rectangle_47-2" data-name="Rectangle 47" width="1264" height="102" rx="51" transform="matrix(0.85, 0.53, -0.53, 0.85, 480.07, 855.36)" fill="#262626"/>
  </g>
  <g transform="matrix(1, 0, 0, 1, 0, 0)" filter="url(#Rectangle_48)">
    <rect id="Rectangle_48-2" data-name="Rectangle 48" width="1636" height="75" rx="37.5" transform="matrix(0.85, 0.53, -0.53, 0.85, 48.74, 638.18)" fill="#591919"/>
  </g>
  <g transform="matrix(1, 0, 0, 1, 0, 0)" filter="url(#Rectangle_49)">
    <rect id="Rectangle_49-2" data-name="Rectangle 49" width="1264" height="102" rx="51" transform="matrix(0.85, 0.53, -0.53, 0.85, 291.33, 910.34)" fill="#262626"/>
  </g>
  <g transform="matrix(1, 0, 0, 1, 0, 0)" filter="url(#Rectangle_50)">
    <rect id="Rectangle_50-2" data-name="Rectangle 50" width="1264" height="102" rx="51" transform="matrix(0.85, 0.53, -0.53, 0.85, 523.33, 809.34)" fill="#1a1a1a"/>
  </g>
  <g transform="matrix(1, 0, 0, 1, 0, 0)" filter="url(#Rectangle_51)">
    <rect id="Rectangle_51-2" data-name="Rectangle 51" width="1264" height="102" rx="51" transform="matrix(0.85, 0.53, -0.53, 0.85, 281.14, 842.95)" fill="#262626"/>
  </g>
  <g transform="matrix(1, 0, 0, 1, 0, 0)" filter="url(#Rectangle_52)">
    <rect id="Rectangle_52-2" data-name="Rectangle 52" width="1516" height="104" rx="52" transform="matrix(0.85, 0.53, -0.53, 0.85, 562.52, 727.72)" fill="#1a1a1a"/>
  </g>
  <g transform="matrix(1, 0, 0, 1, 0, 0)" filter="url(#Rectangle_53)">
    <rect id="Rectangle_53-2" data-name="Rectangle 53" width="935" height="76" rx="38" transform="matrix(0.85, 0.53, -0.53, 0.85, 1317.87, 102.13)" fill="#591919"/>
  </g>
  <g transform="matrix(1, 0, 0, 1, 0, 0)" filter="url(#Rectangle_54)">
    <rect id="Rectangle_54-2" data-name="Rectangle 54" width="1203" height="102" rx="51" transform="matrix(0.85, 0.53, -0.53, 0.85, 1212.33, 236.34)" fill="#591919"/>
  </g>
  <g transform="matrix(1, 0, 0, 1, 0, 0)" filter="url(#Rectangle_55)">
    <rect id="Rectangle_55-2" data-name="Rectangle 55" width="1607" height="110" rx="55" transform="matrix(0.85, 0.53, -0.53, 0.85, 818.89, 409.3)" fill="#1a1a1a"/>
  </g>
  <g transform="matrix(1, 0, 0, 1, 0, 0)" filter="url(#Rectangle_56)">
    <rect id="Rectangle_56-2" data-name="Rectangle 56" width="1264" height="102" rx="51" transform="matrix(0.85, 0.53, -0.53, 0.85, 937.12, 672.28)" fill="#1a1a1a"/>
  </g>
  <g transform="matrix(1, 0, 0, 1, 0, 0)" filter="url(#Rectangle_57)">
    <rect id="Rectangle_57-2" data-name="Rectangle 57" width="1264" height="102" rx="51" transform="matrix(0.85, 0.53, -0.53, 0.85, 927.12, 755.28)" fill="#591919"/>
  </g>
  <g transform="matrix(1, 0, 0, 1, 0, 0)" filter="url(#Rectangle_58)">
    <rect id="Rectangle_58-2" data-name="Rectangle 58" width="1264" height="102" rx="51" transform="matrix(0.85, 0.53, -0.53, 0.85, 1059.14, 243.95)" fill="#262626"/>
  </g>
  <g transform="matrix(1, 0, 0, 1, 0, 0)" filter="url(#Rectangle_59)">
    <rect id="Rectangle_59-2" data-name="Rectangle 59" width="1092" height="102" rx="51" transform="matrix(0.85, 0.53, -0.53, 0.85, 1359.07, 237.36)" fill="#262626"/>
  </g>
  <g transform="matrix(1, 0, 0, 1, 0, 0)" filter="url(#Rectangle_60)">
    <rect id="Rectangle_60-2" data-name="Rectangle 60" width="1264" height="80" rx="40" transform="matrix(0.85, 0.53, -0.53, 0.85, 846.64, 325.92)" fill="#262626"/>
  </g>
  <g transform="matrix(1, 0, 0, 1, 0, 0)" filter="url(#Rectangle_61)">
    <rect id="Rectangle_61-2" data-name="Rectangle 61" width="1332" height="100" rx="50" transform="matrix(0.85, 0.53, -0.53, 0.85, 712.35, 722.54)" fill="#262626"/>
  </g>
</svg>
