<svg xmlns="http://www.w3.org/2000/svg" width="35.906" height="29.915" viewBox="0 0 35.906 29.915">
  <g id="Groupe_24" data-name="Groupe 24" transform="translate(-471.671 19.198)">
    <path id="Tracé_3" data-name="Tracé 3" d="M542.955,80.34a15.21,15.21,0,0,0,10.428-3.126,7.62,7.62,0,0,1-4.256-1.57,6.593,6.593,0,0,1-2.517-3.594l3.085-.151c-3.689-1.389-5.6-3.724-5.858-7.436,1.017.138,1.823.812,2.951.559-2.892-2.783-3.648-5.952-1.84-9.784a23.189,23.189,0,0,0,6.205,5.166,22.062,22.062,0,0,0,8.254,2.6c.731.087,1.1.05,1-.919a7,7,0,0,1,3.657-7.187,6.885,6.885,0,0,1,8.058.392,2.651,2.651,0,0,0,2.956.422c.91-.384,1.83-.748,2.869-1.171a6.364,6.364,0,0,1-2.135,3.286c-.1.089-.459-.051-.279.282a.351.351,0,0,0,.452.206c.9-.259,1.811-.484,2.874-.764a7.933,7.933,0,0,1-2.135,2.532,3.209,3.209,0,0,0-1.388,2.869,21.237,21.237,0,0,1-16.863,20.269,20.973,20.973,0,0,1-15.057-2.359C543.226,80.756,542.951,80.732,542.955,80.34Z" transform="translate(-71.283 -72.986)" fill="#f1ccaf"/>
  </g>
</svg>
